<svg width="201" height="211" viewBox="0 0 201 211" fill="none" xmlns="http://www.w3.org/2000/svg">
<path d="M16.1085 148.5L100.113 3.00001L184.117 148.5H16.1085Z" stroke="white" stroke-width="3"/>
<path d="M8.56641 64.4535C8.56641 64.1722 8.49609 63.9183 8.35547 63.6917C8.21484 63.4574 7.94531 63.2464 7.54688 63.0589C7.15625 62.8714 6.57812 62.6996 5.8125 62.5433C5.14062 62.3949 4.52344 62.2191 3.96094 62.016C3.40625 61.805 2.92969 61.5511 2.53125 61.2542C2.13281 60.9574 1.82422 60.6058 1.60547 60.1996C1.38672 59.7933 1.27734 59.3246 1.27734 58.7933C1.27734 58.2777 1.39062 57.7894 1.61719 57.3285C1.84375 56.8675 2.16797 56.4613 2.58984 56.1097C3.01172 55.7581 3.52344 55.4808 4.125 55.2777C4.73438 55.0746 5.41406 54.973 6.16406 54.973C7.22656 54.973 8.13672 55.1527 8.89453 55.5121C9.66016 55.8636 10.2461 56.3441 10.6523 56.9535C11.0586 57.555 11.2617 58.2347 11.2617 58.9925H8.4375C8.4375 58.6566 8.35156 58.3441 8.17969 58.055C8.01562 57.7581 7.76562 57.5199 7.42969 57.3402C7.09375 57.1527 6.67188 57.0589 6.16406 57.0589C5.67969 57.0589 5.27734 57.1371 4.95703 57.2933C4.64453 57.4417 4.41016 57.6371 4.25391 57.8792C4.10547 58.1214 4.03125 58.3871 4.03125 58.6761C4.03125 58.8871 4.07031 59.0785 4.14844 59.2503C4.23438 59.4144 4.375 59.5667 4.57031 59.7074C4.76562 59.8402 5.03125 59.9652 5.36719 60.0824C5.71094 60.1996 6.14062 60.3128 6.65625 60.4222C7.625 60.6253 8.45703 60.8871 9.15234 61.2074C9.85547 61.5199 10.3945 61.9261 10.7695 62.4261C11.1445 62.9183 11.332 63.5433 11.332 64.3011C11.332 64.8636 11.2109 65.3792 10.9688 65.848C10.7344 66.3089 10.3906 66.7113 9.9375 67.055C9.48438 67.391 8.94141 67.6527 8.30859 67.8402C7.68359 68.0277 6.98047 68.1214 6.19922 68.1214C5.05078 68.1214 4.07812 67.9183 3.28125 67.5121C2.48438 67.098 1.87891 66.5706 1.46484 65.93C1.05859 65.2816 0.855469 64.6097 0.855469 63.9144H3.58594C3.61719 64.4378 3.76172 64.8558 4.01953 65.1683C4.28516 65.473 4.61328 65.6956 5.00391 65.8363C5.40234 65.9691 5.8125 66.0355 6.23438 66.0355C6.74219 66.0355 7.16797 65.9691 7.51172 65.8363C7.85547 65.6956 8.11719 65.5081 8.29688 65.2738C8.47656 65.0316 8.56641 64.7581 8.56641 64.4535ZM16.8281 55.2074V67.8871H13.9922V55.2074H16.8281ZM13.8047 51.8792C13.8047 51.4496 13.9453 51.0941 14.2266 50.8128C14.5156 50.5238 14.9141 50.3792 15.4219 50.3792C15.9219 50.3792 16.3164 50.5238 16.6055 50.8128C16.8945 51.0941 17.0391 51.4496 17.0391 51.8792C17.0391 52.3011 16.8945 52.6527 16.6055 52.9339C16.3164 53.2152 15.9219 53.3558 15.4219 53.3558C14.9141 53.3558 14.5156 53.2152 14.2266 52.9339C13.9453 52.6527 13.8047 52.3011 13.8047 51.8792ZM27.6562 65.2621V49.8871H30.4922V67.8871H27.9258L27.6562 65.2621ZM19.4062 61.6878V61.4417C19.4062 60.4808 19.5195 59.6058 19.7461 58.8167C19.9727 58.0199 20.3008 57.3363 20.7305 56.766C21.1602 56.1878 21.6836 55.7464 22.3008 55.4417C22.918 55.1292 23.6133 54.973 24.3867 54.973C25.1523 54.973 25.8242 55.1214 26.4023 55.4183C26.9805 55.7152 27.4727 56.141 27.8789 56.6956C28.2852 57.2425 28.6094 57.8988 28.8516 58.6644C29.0938 59.4222 29.2656 60.266 29.3672 61.1956V61.9808C29.2656 62.8871 29.0938 63.7152 28.8516 64.4652C28.6094 65.2152 28.2852 65.8636 27.8789 66.4105C27.4727 66.9574 26.9766 67.3792 26.3906 67.6761C25.8125 67.973 25.1367 68.1214 24.3633 68.1214C23.5977 68.1214 22.9062 67.9613 22.2891 67.641C21.6797 67.3206 21.1602 66.8714 20.7305 66.2933C20.3008 65.7152 19.9727 65.0355 19.7461 64.2542C19.5195 63.4652 19.4062 62.6097 19.4062 61.6878ZM22.2305 61.4417V61.6878C22.2305 62.266 22.2812 62.805 22.3828 63.305C22.4922 63.805 22.6602 64.2464 22.8867 64.6292C23.1133 65.0042 23.4062 65.3011 23.7656 65.5199C24.1328 65.7308 24.5703 65.8363 25.0781 65.8363C25.7188 65.8363 26.2461 65.6956 26.6602 65.4144C27.0742 65.1331 27.3984 64.7542 27.6328 64.2777C27.875 63.7933 28.0391 63.2542 28.125 62.6605V60.5394C28.0781 60.0785 27.9805 59.6488 27.832 59.2503C27.6914 58.8519 27.5 58.5042 27.2578 58.2074C27.0156 57.9027 26.7148 57.6683 26.3555 57.5042C26.0039 57.3324 25.5859 57.2464 25.1016 57.2464C24.5859 57.2464 24.1484 57.3558 23.7891 57.5746C23.4297 57.7933 23.1328 58.0941 22.8984 58.4769C22.6719 58.8597 22.5039 59.305 22.3945 59.8128C22.2852 60.3206 22.2305 60.8636 22.2305 61.4417ZM39.0352 68.1214C38.0977 68.1214 37.25 67.9691 36.4922 67.6644C35.7422 67.3519 35.1016 66.9183 34.5703 66.3636C34.0469 65.8089 33.6445 65.1566 33.3633 64.4066C33.082 63.6566 32.9414 62.848 32.9414 61.9808V61.5121C32.9414 60.5199 33.0859 59.6214 33.375 58.8167C33.6641 58.0121 34.0664 57.3246 34.582 56.7542C35.0977 56.1761 35.707 55.7347 36.4102 55.43C37.1133 55.1253 37.875 54.973 38.6953 54.973C39.6016 54.973 40.3945 55.1253 41.0742 55.43C41.7539 55.7347 42.3164 56.1644 42.7617 56.7191C43.2148 57.266 43.5508 57.9183 43.7695 58.6761C43.9961 59.4339 44.1094 60.2699 44.1094 61.1839V62.391H34.3125V60.3636H41.3203V60.141C41.3047 59.6331 41.2031 59.1566 41.0156 58.7113C40.8359 58.266 40.5586 57.9066 40.1836 57.6331C39.8086 57.3597 39.3086 57.223 38.6836 57.223C38.2148 57.223 37.7969 57.3246 37.4297 57.5277C37.0703 57.723 36.7695 58.0081 36.5273 58.3831C36.2852 58.7581 36.0977 59.2113 35.9648 59.7425C35.8398 60.266 35.7773 60.8558 35.7773 61.5121V61.9808C35.7773 62.5355 35.8516 63.0511 36 63.5277C36.1562 63.9964 36.3828 64.4066 36.6797 64.7581C36.9766 65.1097 37.3359 65.3871 37.7578 65.5902C38.1797 65.7855 38.6602 65.8831 39.1992 65.8831C39.8789 65.8831 40.4844 65.7464 41.0156 65.473C41.5469 65.1996 42.0078 64.8128 42.3984 64.3128L43.8867 65.7542C43.6133 66.1527 43.2578 66.5355 42.8203 66.9027C42.3828 67.2621 41.8477 67.555 41.2148 67.7816C40.5898 68.0081 39.8633 68.1214 39.0352 68.1214Z" fill="white"/>
<path d="M113.242 82V100H110.43V82H113.242ZM112.75 93.1914L111.836 93.1797C111.844 92.3047 111.965 91.4961 112.199 90.7539C112.441 90.0117 112.777 89.3672 113.207 88.8203C113.645 88.2656 114.168 87.8398 114.777 87.543C115.387 87.2383 116.062 87.0859 116.805 87.0859C117.43 87.0859 117.992 87.1719 118.492 87.3438C119 87.5156 119.438 87.793 119.805 88.1758C120.172 88.5508 120.449 89.043 120.637 89.6523C120.832 90.2539 120.93 90.9883 120.93 91.8555V100H118.094V91.832C118.094 91.2227 118.004 90.7383 117.824 90.3789C117.652 90.0195 117.398 89.7617 117.062 89.6055C116.727 89.4414 116.316 89.3594 115.832 89.3594C115.324 89.3594 114.875 89.4609 114.484 89.6641C114.102 89.8672 113.781 90.1445 113.523 90.4961C113.266 90.8477 113.07 91.2539 112.938 91.7148C112.812 92.1758 112.75 92.668 112.75 93.1914Z" fill="white"/>
<path d="M33.4648 157H36.2891V172.293L36.0195 175H33.4648V157ZM44.5625 168.543V168.789C44.5625 169.727 44.457 170.59 44.2461 171.379C44.043 172.16 43.7305 172.84 43.3086 173.418C42.8945 173.996 42.3789 174.445 41.7617 174.766C41.1523 175.078 40.4453 175.234 39.6406 175.234C38.8516 175.234 38.1641 175.086 37.5781 174.789C36.9922 174.492 36.5 174.07 36.1016 173.523C35.7109 172.977 35.3945 172.324 35.1523 171.566C34.9102 170.809 34.7383 169.973 34.6367 169.059V168.273C34.7383 167.352 34.9102 166.516 35.1523 165.766C35.3945 165.008 35.7109 164.355 36.1016 163.809C36.5 163.254 36.9883 162.828 37.5664 162.531C38.1523 162.234 38.8359 162.086 39.6172 162.086C40.4297 162.086 41.1445 162.242 41.7617 162.555C42.3867 162.867 42.9062 163.312 43.3203 163.891C43.7344 164.461 44.043 165.141 44.2461 165.93C44.457 166.719 44.5625 167.59 44.5625 168.543ZM41.7383 168.789V168.543C41.7383 167.973 41.6914 167.438 41.5977 166.938C41.5039 166.43 41.3477 165.984 41.1289 165.602C40.918 165.219 40.6289 164.918 40.2617 164.699C39.9023 164.473 39.4531 164.359 38.9141 164.359C38.4141 164.359 37.9844 164.445 37.625 164.617C37.2656 164.789 36.9648 165.023 36.7227 165.32C36.4805 165.617 36.2891 165.961 36.1484 166.352C36.0156 166.742 35.9258 167.164 35.8789 167.617V169.738C35.9492 170.324 36.0977 170.863 36.3242 171.355C36.5586 171.84 36.8867 172.23 37.3086 172.527C37.7305 172.816 38.2734 172.961 38.9375 172.961C39.4609 172.961 39.9023 172.855 40.2617 172.645C40.6211 172.434 40.9062 172.141 41.1172 171.766C41.3359 171.383 41.4922 170.938 41.5859 170.43C41.6875 169.922 41.7383 169.375 41.7383 168.789ZM54.1016 172.457V166.41C54.1016 165.957 54.0195 165.566 53.8555 165.238C53.6914 164.91 53.4414 164.656 53.1055 164.477C52.7773 164.297 52.3633 164.207 51.8633 164.207C51.4023 164.207 51.0039 164.285 50.668 164.441C50.332 164.598 50.0703 164.809 49.8828 165.074C49.6953 165.34 49.6016 165.641 49.6016 165.977H46.7891C46.7891 165.477 46.9102 164.992 47.1523 164.523C47.3945 164.055 47.7461 163.637 48.207 163.27C48.668 162.902 49.2188 162.613 49.8594 162.402C50.5 162.191 51.2188 162.086 52.0156 162.086C52.9688 162.086 53.8125 162.246 54.5469 162.566C55.2891 162.887 55.8711 163.371 56.293 164.02C56.7227 164.66 56.9375 165.465 56.9375 166.434V172.07C56.9375 172.648 56.9766 173.168 57.0547 173.629C57.1406 174.082 57.2617 174.477 57.418 174.812V175H54.5234C54.3906 174.695 54.2852 174.309 54.207 173.84C54.1367 173.363 54.1016 172.902 54.1016 172.457ZM54.5117 167.289L54.5352 169.035H52.5078C51.9844 169.035 51.5234 169.086 51.125 169.188C50.7266 169.281 50.3945 169.422 50.1289 169.609C49.8633 169.797 49.6641 170.023 49.5312 170.289C49.3984 170.555 49.332 170.855 49.332 171.191C49.332 171.527 49.4102 171.836 49.5664 172.117C49.7227 172.391 49.9492 172.605 50.2461 172.762C50.5508 172.918 50.918 172.996 51.3477 172.996C51.9258 172.996 52.4297 172.879 52.8594 172.645C53.2969 172.402 53.6406 172.109 53.8906 171.766C54.1406 171.414 54.2734 171.082 54.2891 170.77L55.2031 172.023C55.1094 172.344 54.9492 172.688 54.7227 173.055C54.4961 173.422 54.1992 173.773 53.832 174.109C53.4727 174.438 53.0391 174.707 52.5312 174.918C52.0312 175.129 51.4531 175.234 50.7969 175.234C49.9688 175.234 49.2305 175.07 48.582 174.742C47.9336 174.406 47.4258 173.957 47.0586 173.395C46.6914 172.824 46.5078 172.18 46.5078 171.461C46.5078 170.789 46.6328 170.195 46.8828 169.68C47.1406 169.156 47.5156 168.719 48.0078 168.367C48.5078 168.016 49.1172 167.75 49.8359 167.57C50.5547 167.383 51.375 167.289 52.2969 167.289H54.5117ZM67.0039 171.566C67.0039 171.285 66.9336 171.031 66.793 170.805C66.6523 170.57 66.3828 170.359 65.9844 170.172C65.5938 169.984 65.0156 169.812 64.25 169.656C63.5781 169.508 62.9609 169.332 62.3984 169.129C61.8438 168.918 61.3672 168.664 60.9688 168.367C60.5703 168.07 60.2617 167.719 60.043 167.312C59.8242 166.906 59.7148 166.438 59.7148 165.906C59.7148 165.391 59.8281 164.902 60.0547 164.441C60.2812 163.98 60.6055 163.574 61.0273 163.223C61.4492 162.871 61.9609 162.594 62.5625 162.391C63.1719 162.188 63.8516 162.086 64.6016 162.086C65.6641 162.086 66.5742 162.266 67.332 162.625C68.0977 162.977 68.6836 163.457 69.0898 164.066C69.4961 164.668 69.6992 165.348 69.6992 166.105H66.875C66.875 165.77 66.7891 165.457 66.6172 165.168C66.4531 164.871 66.2031 164.633 65.8672 164.453C65.5312 164.266 65.1094 164.172 64.6016 164.172C64.1172 164.172 63.7148 164.25 63.3945 164.406C63.082 164.555 62.8477 164.75 62.6914 164.992C62.543 165.234 62.4688 165.5 62.4688 165.789C62.4688 166 62.5078 166.191 62.5859 166.363C62.6719 166.527 62.8125 166.68 63.0078 166.82C63.2031 166.953 63.4688 167.078 63.8047 167.195C64.1484 167.312 64.5781 167.426 65.0938 167.535C66.0625 167.738 66.8945 168 67.5898 168.32C68.293 168.633 68.832 169.039 69.207 169.539C69.582 170.031 69.7695 170.656 69.7695 171.414C69.7695 171.977 69.6484 172.492 69.4062 172.961C69.1719 173.422 68.8281 173.824 68.375 174.168C67.9219 174.504 67.3789 174.766 66.7461 174.953C66.1211 175.141 65.418 175.234 64.6367 175.234C63.4883 175.234 62.5156 175.031 61.7188 174.625C60.9219 174.211 60.3164 173.684 59.9023 173.043C59.4961 172.395 59.293 171.723 59.293 171.027H62.0234C62.0547 171.551 62.1992 171.969 62.457 172.281C62.7227 172.586 63.0508 172.809 63.4414 172.949C63.8398 173.082 64.25 173.148 64.6719 173.148C65.1797 173.148 65.6055 173.082 65.9492 172.949C66.293 172.809 66.5547 172.621 66.7344 172.387C66.9141 172.145 67.0039 171.871 67.0039 171.566ZM77.832 175.234C76.8945 175.234 76.0469 175.082 75.2891 174.777C74.5391 174.465 73.8984 174.031 73.3672 173.477C72.8438 172.922 72.4414 172.27 72.1602 171.52C71.8789 170.77 71.7383 169.961 71.7383 169.094V168.625C71.7383 167.633 71.8828 166.734 72.1719 165.93C72.4609 165.125 72.8633 164.438 73.3789 163.867C73.8945 163.289 74.5039 162.848 75.207 162.543C75.9102 162.238 76.6719 162.086 77.4922 162.086C78.3984 162.086 79.1914 162.238 79.8711 162.543C80.5508 162.848 81.1133 163.277 81.5586 163.832C82.0117 164.379 82.3477 165.031 82.5664 165.789C82.793 166.547 82.9062 167.383 82.9062 168.297V169.504H73.1094V167.477H80.1172V167.254C80.1016 166.746 80 166.27 79.8125 165.824C79.6328 165.379 79.3555 165.02 78.9805 164.746C78.6055 164.473 78.1055 164.336 77.4805 164.336C77.0117 164.336 76.5938 164.438 76.2266 164.641C75.8672 164.836 75.5664 165.121 75.3242 165.496C75.082 165.871 74.8945 166.324 74.7617 166.855C74.6367 167.379 74.5742 167.969 74.5742 168.625V169.094C74.5742 169.648 74.6484 170.164 74.7969 170.641C74.9531 171.109 75.1797 171.52 75.4766 171.871C75.7734 172.223 76.1328 172.5 76.5547 172.703C76.9766 172.898 77.457 172.996 77.9961 172.996C78.6758 172.996 79.2812 172.859 79.8125 172.586C80.3438 172.312 80.8047 171.926 81.1953 171.426L82.6836 172.867C82.4102 173.266 82.0547 173.648 81.6172 174.016C81.1797 174.375 80.6445 174.668 80.0117 174.895C79.3867 175.121 78.6602 175.234 77.832 175.234Z" fill="white"/>
<path d="M62.7266 201.75V204H51.2891V202.066L56.8438 196.008C57.4531 195.32 57.9336 194.727 58.2852 194.227C58.6367 193.727 58.8828 193.277 59.0234 192.879C59.1719 192.473 59.2461 192.078 59.2461 191.695C59.2461 191.156 59.1445 190.684 58.9414 190.277C58.7461 189.863 58.457 189.539 58.0742 189.305C57.6914 189.062 57.2266 188.941 56.6797 188.941C56.0469 188.941 55.5156 189.078 55.0859 189.352C54.6562 189.625 54.332 190.004 54.1133 190.488C53.8945 190.965 53.7852 191.512 53.7852 192.129H50.9609C50.9609 191.137 51.1875 190.23 51.6406 189.41C52.0938 188.582 52.75 187.926 53.6094 187.441C54.4688 186.949 55.5039 186.703 56.7148 186.703C57.8555 186.703 58.8242 186.895 59.6211 187.277C60.418 187.66 61.0234 188.203 61.4375 188.906C61.8594 189.609 62.0703 190.441 62.0703 191.402C62.0703 191.934 61.9844 192.461 61.8125 192.984C61.6406 193.508 61.3945 194.031 61.0742 194.555C60.7617 195.07 60.3906 195.59 59.9609 196.113C59.5312 196.629 59.0586 197.152 58.543 197.684L54.8516 201.75H62.7266Z" fill="white"/>
<path d="M100 4L100 149" stroke="white" stroke-width="2" stroke-dasharray="4 4"/>
<line x1="24" y1="181" x2="92" y2="181" stroke="white" stroke-width="2"/>
</svg>
