<svg width="201" height="201" viewBox="0 0 201 201" fill="none" xmlns="http://www.w3.org/2000/svg">
<path d="M16.1085 148.613L100.113 3.11295L184.117 148.613H16.1085Z" stroke="white" stroke-width="3"/>
<path d="M8.56641 64.5664C8.56641 64.2852 8.49609 64.0312 8.35547 63.8047C8.21484 63.5703 7.94531 63.3594 7.54688 63.1719C7.15625 62.9844 6.57812 62.8125 5.8125 62.6562C5.14062 62.5078 4.52344 62.332 3.96094 62.1289C3.40625 61.918 2.92969 61.6641 2.53125 61.3672C2.13281 61.0703 1.82422 60.7188 1.60547 60.3125C1.38672 59.9062 1.27734 59.4375 1.27734 58.9062C1.27734 58.3906 1.39062 57.9023 1.61719 57.4414C1.84375 56.9805 2.16797 56.5742 2.58984 56.2227C3.01172 55.8711 3.52344 55.5938 4.125 55.3906C4.73438 55.1875 5.41406 55.0859 6.16406 55.0859C7.22656 55.0859 8.13672 55.2656 8.89453 55.625C9.66016 55.9766 10.2461 56.457 10.6523 57.0664C11.0586 57.668 11.2617 58.3477 11.2617 59.1055H8.4375C8.4375 58.7695 8.35156 58.457 8.17969 58.168C8.01562 57.8711 7.76562 57.6328 7.42969 57.4531C7.09375 57.2656 6.67188 57.1719 6.16406 57.1719C5.67969 57.1719 5.27734 57.25 4.95703 57.4062C4.64453 57.5547 4.41016 57.75 4.25391 57.9922C4.10547 58.2344 4.03125 58.5 4.03125 58.7891C4.03125 59 4.07031 59.1914 4.14844 59.3633C4.23438 59.5273 4.375 59.6797 4.57031 59.8203C4.76562 59.9531 5.03125 60.0781 5.36719 60.1953C5.71094 60.3125 6.14062 60.4258 6.65625 60.5352C7.625 60.7383 8.45703 61 9.15234 61.3203C9.85547 61.6328 10.3945 62.0391 10.7695 62.5391C11.1445 63.0312 11.332 63.6562 11.332 64.4141C11.332 64.9766 11.2109 65.4922 10.9688 65.9609C10.7344 66.4219 10.3906 66.8242 9.9375 67.168C9.48438 67.5039 8.94141 67.7656 8.30859 67.9531C7.68359 68.1406 6.98047 68.2344 6.19922 68.2344C5.05078 68.2344 4.07812 68.0312 3.28125 67.625C2.48438 67.2109 1.87891 66.6836 1.46484 66.043C1.05859 65.3945 0.855469 64.7227 0.855469 64.0273H3.58594C3.61719 64.5508 3.76172 64.9688 4.01953 65.2812C4.28516 65.5859 4.61328 65.8086 5.00391 65.9492C5.40234 66.082 5.8125 66.1484 6.23438 66.1484C6.74219 66.1484 7.16797 66.082 7.51172 65.9492C7.85547 65.8086 8.11719 65.6211 8.29688 65.3867C8.47656 65.1445 8.56641 64.8711 8.56641 64.5664ZM16.8281 55.3203V68H13.9922V55.3203H16.8281ZM13.8047 51.9922C13.8047 51.5625 13.9453 51.207 14.2266 50.9258C14.5156 50.6367 14.9141 50.4922 15.4219 50.4922C15.9219 50.4922 16.3164 50.6367 16.6055 50.9258C16.8945 51.207 17.0391 51.5625 17.0391 51.9922C17.0391 52.4141 16.8945 52.7656 16.6055 53.0469C16.3164 53.3281 15.9219 53.4688 15.4219 53.4688C14.9141 53.4688 14.5156 53.3281 14.2266 53.0469C13.9453 52.7656 13.8047 52.4141 13.8047 51.9922ZM27.6562 65.375V50H30.4922V68H27.9258L27.6562 65.375ZM19.4062 61.8008V61.5547C19.4062 60.5938 19.5195 59.7188 19.7461 58.9297C19.9727 58.1328 20.3008 57.4492 20.7305 56.8789C21.1602 56.3008 21.6836 55.8594 22.3008 55.5547C22.918 55.2422 23.6133 55.0859 24.3867 55.0859C25.1523 55.0859 25.8242 55.2344 26.4023 55.5312C26.9805 55.8281 27.4727 56.2539 27.8789 56.8086C28.2852 57.3555 28.6094 58.0117 28.8516 58.7773C29.0938 59.5352 29.2656 60.3789 29.3672 61.3086V62.0938C29.2656 63 29.0938 63.8281 28.8516 64.5781C28.6094 65.3281 28.2852 65.9766 27.8789 66.5234C27.4727 67.0703 26.9766 67.4922 26.3906 67.7891C25.8125 68.0859 25.1367 68.2344 24.3633 68.2344C23.5977 68.2344 22.9062 68.0742 22.2891 67.7539C21.6797 67.4336 21.1602 66.9844 20.7305 66.4062C20.3008 65.8281 19.9727 65.1484 19.7461 64.3672C19.5195 63.5781 19.4062 62.7227 19.4062 61.8008ZM22.2305 61.5547V61.8008C22.2305 62.3789 22.2812 62.918 22.3828 63.418C22.4922 63.918 22.6602 64.3594 22.8867 64.7422C23.1133 65.1172 23.4062 65.4141 23.7656 65.6328C24.1328 65.8438 24.5703 65.9492 25.0781 65.9492C25.7188 65.9492 26.2461 65.8086 26.6602 65.5273C27.0742 65.2461 27.3984 64.8672 27.6328 64.3906C27.875 63.9062 28.0391 63.3672 28.125 62.7734V60.6523C28.0781 60.1914 27.9805 59.7617 27.832 59.3633C27.6914 58.9648 27.5 58.6172 27.2578 58.3203C27.0156 58.0156 26.7148 57.7812 26.3555 57.6172C26.0039 57.4453 25.5859 57.3594 25.1016 57.3594C24.5859 57.3594 24.1484 57.4688 23.7891 57.6875C23.4297 57.9062 23.1328 58.207 22.8984 58.5898C22.6719 58.9727 22.5039 59.418 22.3945 59.9258C22.2852 60.4336 22.2305 60.9766 22.2305 61.5547ZM39.0352 68.2344C38.0977 68.2344 37.25 68.082 36.4922 67.7773C35.7422 67.4648 35.1016 67.0312 34.5703 66.4766C34.0469 65.9219 33.6445 65.2695 33.3633 64.5195C33.082 63.7695 32.9414 62.9609 32.9414 62.0938V61.625C32.9414 60.6328 33.0859 59.7344 33.375 58.9297C33.6641 58.125 34.0664 57.4375 34.582 56.8672C35.0977 56.2891 35.707 55.8477 36.4102 55.543C37.1133 55.2383 37.875 55.0859 38.6953 55.0859C39.6016 55.0859 40.3945 55.2383 41.0742 55.543C41.7539 55.8477 42.3164 56.2773 42.7617 56.832C43.2148 57.3789 43.5508 58.0312 43.7695 58.7891C43.9961 59.5469 44.1094 60.3828 44.1094 61.2969V62.5039H34.3125V60.4766H41.3203V60.2539C41.3047 59.7461 41.2031 59.2695 41.0156 58.8242C40.8359 58.3789 40.5586 58.0195 40.1836 57.7461C39.8086 57.4727 39.3086 57.3359 38.6836 57.3359C38.2148 57.3359 37.7969 57.4375 37.4297 57.6406C37.0703 57.8359 36.7695 58.1211 36.5273 58.4961C36.2852 58.8711 36.0977 59.3242 35.9648 59.8555C35.8398 60.3789 35.7773 60.9688 35.7773 61.625V62.0938C35.7773 62.6484 35.8516 63.1641 36 63.6406C36.1562 64.1094 36.3828 64.5195 36.6797 64.8711C36.9766 65.2227 37.3359 65.5 37.7578 65.7031C38.1797 65.8984 38.6602 65.9961 39.1992 65.9961C39.8789 65.9961 40.4844 65.8594 41.0156 65.5859C41.5469 65.3125 42.0078 64.9258 42.3984 64.4258L43.8867 65.8672C43.6133 66.2656 43.2578 66.6484 42.8203 67.0156C42.3828 67.375 41.8477 67.668 41.2148 67.8945C40.5898 68.1211 39.8633 68.2344 39.0352 68.2344Z" fill="white"/>
<path d="M160.566 64.5664C160.566 64.2852 160.496 64.0312 160.355 63.8047C160.215 63.5703 159.945 63.3594 159.547 63.1719C159.156 62.9844 158.578 62.8125 157.812 62.6562C157.141 62.5078 156.523 62.332 155.961 62.1289C155.406 61.918 154.93 61.6641 154.531 61.3672C154.133 61.0703 153.824 60.7188 153.605 60.3125C153.387 59.9062 153.277 59.4375 153.277 58.9062C153.277 58.3906 153.391 57.9023 153.617 57.4414C153.844 56.9805 154.168 56.5742 154.59 56.2227C155.012 55.8711 155.523 55.5938 156.125 55.3906C156.734 55.1875 157.414 55.0859 158.164 55.0859C159.227 55.0859 160.137 55.2656 160.895 55.625C161.66 55.9766 162.246 56.457 162.652 57.0664C163.059 57.668 163.262 58.3477 163.262 59.1055H160.438C160.438 58.7695 160.352 58.457 160.18 58.168C160.016 57.8711 159.766 57.6328 159.43 57.4531C159.094 57.2656 158.672 57.1719 158.164 57.1719C157.68 57.1719 157.277 57.25 156.957 57.4062C156.645 57.5547 156.41 57.75 156.254 57.9922C156.105 58.2344 156.031 58.5 156.031 58.7891C156.031 59 156.07 59.1914 156.148 59.3633C156.234 59.5273 156.375 59.6797 156.57 59.8203C156.766 59.9531 157.031 60.0781 157.367 60.1953C157.711 60.3125 158.141 60.4258 158.656 60.5352C159.625 60.7383 160.457 61 161.152 61.3203C161.855 61.6328 162.395 62.0391 162.77 62.5391C163.145 63.0312 163.332 63.6562 163.332 64.4141C163.332 64.9766 163.211 65.4922 162.969 65.9609C162.734 66.4219 162.391 66.8242 161.938 67.168C161.484 67.5039 160.941 67.7656 160.309 67.9531C159.684 68.1406 158.98 68.2344 158.199 68.2344C157.051 68.2344 156.078 68.0312 155.281 67.625C154.484 67.2109 153.879 66.6836 153.465 66.043C153.059 65.3945 152.855 64.7227 152.855 64.0273H155.586C155.617 64.5508 155.762 64.9688 156.02 65.2812C156.285 65.5859 156.613 65.8086 157.004 65.9492C157.402 66.082 157.812 66.1484 158.234 66.1484C158.742 66.1484 159.168 66.082 159.512 65.9492C159.855 65.8086 160.117 65.6211 160.297 65.3867C160.477 65.1445 160.566 64.8711 160.566 64.5664ZM168.828 55.3203V68H165.992V55.3203H168.828ZM165.805 51.9922C165.805 51.5625 165.945 51.207 166.227 50.9258C166.516 50.6367 166.914 50.4922 167.422 50.4922C167.922 50.4922 168.316 50.6367 168.605 50.9258C168.895 51.207 169.039 51.5625 169.039 51.9922C169.039 52.4141 168.895 52.7656 168.605 53.0469C168.316 53.3281 167.922 53.4688 167.422 53.4688C166.914 53.4688 166.516 53.3281 166.227 53.0469C165.945 52.7656 165.805 52.4141 165.805 51.9922ZM179.656 65.375V50H182.492V68H179.926L179.656 65.375ZM171.406 61.8008V61.5547C171.406 60.5938 171.52 59.7188 171.746 58.9297C171.973 58.1328 172.301 57.4492 172.73 56.8789C173.16 56.3008 173.684 55.8594 174.301 55.5547C174.918 55.2422 175.613 55.0859 176.387 55.0859C177.152 55.0859 177.824 55.2344 178.402 55.5312C178.98 55.8281 179.473 56.2539 179.879 56.8086C180.285 57.3555 180.609 58.0117 180.852 58.7773C181.094 59.5352 181.266 60.3789 181.367 61.3086V62.0938C181.266 63 181.094 63.8281 180.852 64.5781C180.609 65.3281 180.285 65.9766 179.879 66.5234C179.473 67.0703 178.977 67.4922 178.391 67.7891C177.812 68.0859 177.137 68.2344 176.363 68.2344C175.598 68.2344 174.906 68.0742 174.289 67.7539C173.68 67.4336 173.16 66.9844 172.73 66.4062C172.301 65.8281 171.973 65.1484 171.746 64.3672C171.52 63.5781 171.406 62.7227 171.406 61.8008ZM174.23 61.5547V61.8008C174.23 62.3789 174.281 62.918 174.383 63.418C174.492 63.918 174.66 64.3594 174.887 64.7422C175.113 65.1172 175.406 65.4141 175.766 65.6328C176.133 65.8438 176.57 65.9492 177.078 65.9492C177.719 65.9492 178.246 65.8086 178.66 65.5273C179.074 65.2461 179.398 64.8672 179.633 64.3906C179.875 63.9062 180.039 63.3672 180.125 62.7734V60.6523C180.078 60.1914 179.98 59.7617 179.832 59.3633C179.691 58.9648 179.5 58.6172 179.258 58.3203C179.016 58.0156 178.715 57.7812 178.355 57.6172C178.004 57.4453 177.586 57.3594 177.102 57.3594C176.586 57.3594 176.148 57.4688 175.789 57.6875C175.43 57.9062 175.133 58.207 174.898 58.5898C174.672 58.9727 174.504 59.418 174.395 59.9258C174.285 60.4336 174.23 60.9766 174.23 61.5547ZM191.035 68.2344C190.098 68.2344 189.25 68.082 188.492 67.7773C187.742 67.4648 187.102 67.0312 186.57 66.4766C186.047 65.9219 185.645 65.2695 185.363 64.5195C185.082 63.7695 184.941 62.9609 184.941 62.0938V61.625C184.941 60.6328 185.086 59.7344 185.375 58.9297C185.664 58.125 186.066 57.4375 186.582 56.8672C187.098 56.2891 187.707 55.8477 188.41 55.543C189.113 55.2383 189.875 55.0859 190.695 55.0859C191.602 55.0859 192.395 55.2383 193.074 55.543C193.754 55.8477 194.316 56.2773 194.762 56.832C195.215 57.3789 195.551 58.0312 195.77 58.7891C195.996 59.5469 196.109 60.3828 196.109 61.2969V62.5039H186.312V60.4766H193.32V60.2539C193.305 59.7461 193.203 59.2695 193.016 58.8242C192.836 58.3789 192.559 58.0195 192.184 57.7461C191.809 57.4727 191.309 57.3359 190.684 57.3359C190.215 57.3359 189.797 57.4375 189.43 57.6406C189.07 57.8359 188.77 58.1211 188.527 58.4961C188.285 58.8711 188.098 59.3242 187.965 59.8555C187.84 60.3789 187.777 60.9688 187.777 61.625V62.0938C187.777 62.6484 187.852 63.1641 188 63.6406C188.156 64.1094 188.383 64.5195 188.68 64.8711C188.977 65.2227 189.336 65.5 189.758 65.7031C190.18 65.8984 190.66 65.9961 191.199 65.9961C191.879 65.9961 192.484 65.8594 193.016 65.5859C193.547 65.3125 194.008 64.9258 194.398 64.4258L195.887 65.8672C195.613 66.2656 195.258 66.6484 194.82 67.0156C194.383 67.375 193.848 67.668 193.215 67.8945C192.59 68.1211 191.863 68.2344 191.035 68.2344Z" fill="white"/>
<path d="M73.4648 164H76.2891V179.293L76.0195 182H73.4648V164ZM84.5625 175.543V175.789C84.5625 176.727 84.457 177.59 84.2461 178.379C84.043 179.16 83.7305 179.84 83.3086 180.418C82.8945 180.996 82.3789 181.445 81.7617 181.766C81.1523 182.078 80.4453 182.234 79.6406 182.234C78.8516 182.234 78.1641 182.086 77.5781 181.789C76.9922 181.492 76.5 181.07 76.1016 180.523C75.7109 179.977 75.3945 179.324 75.1523 178.566C74.9102 177.809 74.7383 176.973 74.6367 176.059V175.273C74.7383 174.352 74.9102 173.516 75.1523 172.766C75.3945 172.008 75.7109 171.355 76.1016 170.809C76.5 170.254 76.9883 169.828 77.5664 169.531C78.1523 169.234 78.8359 169.086 79.6172 169.086C80.4297 169.086 81.1445 169.242 81.7617 169.555C82.3867 169.867 82.9062 170.312 83.3203 170.891C83.7344 171.461 84.043 172.141 84.2461 172.93C84.457 173.719 84.5625 174.59 84.5625 175.543ZM81.7383 175.789V175.543C81.7383 174.973 81.6914 174.438 81.5977 173.938C81.5039 173.43 81.3477 172.984 81.1289 172.602C80.918 172.219 80.6289 171.918 80.2617 171.699C79.9023 171.473 79.4531 171.359 78.9141 171.359C78.4141 171.359 77.9844 171.445 77.625 171.617C77.2656 171.789 76.9648 172.023 76.7227 172.32C76.4805 172.617 76.2891 172.961 76.1484 173.352C76.0156 173.742 75.9258 174.164 75.8789 174.617V176.738C75.9492 177.324 76.0977 177.863 76.3242 178.355C76.5586 178.84 76.8867 179.23 77.3086 179.527C77.7305 179.816 78.2734 179.961 78.9375 179.961C79.4609 179.961 79.9023 179.855 80.2617 179.645C80.6211 179.434 80.9062 179.141 81.1172 178.766C81.3359 178.383 81.4922 177.938 81.5859 177.43C81.6875 176.922 81.7383 176.375 81.7383 175.789ZM94.1016 179.457V173.41C94.1016 172.957 94.0195 172.566 93.8555 172.238C93.6914 171.91 93.4414 171.656 93.1055 171.477C92.7773 171.297 92.3633 171.207 91.8633 171.207C91.4023 171.207 91.0039 171.285 90.668 171.441C90.332 171.598 90.0703 171.809 89.8828 172.074C89.6953 172.34 89.6016 172.641 89.6016 172.977H86.7891C86.7891 172.477 86.9102 171.992 87.1523 171.523C87.3945 171.055 87.7461 170.637 88.207 170.27C88.668 169.902 89.2188 169.613 89.8594 169.402C90.5 169.191 91.2188 169.086 92.0156 169.086C92.9688 169.086 93.8125 169.246 94.5469 169.566C95.2891 169.887 95.8711 170.371 96.293 171.02C96.7227 171.66 96.9375 172.465 96.9375 173.434V179.07C96.9375 179.648 96.9766 180.168 97.0547 180.629C97.1406 181.082 97.2617 181.477 97.418 181.812V182H94.5234C94.3906 181.695 94.2852 181.309 94.207 180.84C94.1367 180.363 94.1016 179.902 94.1016 179.457ZM94.5117 174.289L94.5352 176.035H92.5078C91.9844 176.035 91.5234 176.086 91.125 176.188C90.7266 176.281 90.3945 176.422 90.1289 176.609C89.8633 176.797 89.6641 177.023 89.5312 177.289C89.3984 177.555 89.332 177.855 89.332 178.191C89.332 178.527 89.4102 178.836 89.5664 179.117C89.7227 179.391 89.9492 179.605 90.2461 179.762C90.5508 179.918 90.918 179.996 91.3477 179.996C91.9258 179.996 92.4297 179.879 92.8594 179.645C93.2969 179.402 93.6406 179.109 93.8906 178.766C94.1406 178.414 94.2734 178.082 94.2891 177.77L95.2031 179.023C95.1094 179.344 94.9492 179.688 94.7227 180.055C94.4961 180.422 94.1992 180.773 93.832 181.109C93.4727 181.438 93.0391 181.707 92.5312 181.918C92.0312 182.129 91.4531 182.234 90.7969 182.234C89.9688 182.234 89.2305 182.07 88.582 181.742C87.9336 181.406 87.4258 180.957 87.0586 180.395C86.6914 179.824 86.5078 179.18 86.5078 178.461C86.5078 177.789 86.6328 177.195 86.8828 176.68C87.1406 176.156 87.5156 175.719 88.0078 175.367C88.5078 175.016 89.1172 174.75 89.8359 174.57C90.5547 174.383 91.375 174.289 92.2969 174.289H94.5117ZM107.004 178.566C107.004 178.285 106.934 178.031 106.793 177.805C106.652 177.57 106.383 177.359 105.984 177.172C105.594 176.984 105.016 176.812 104.25 176.656C103.578 176.508 102.961 176.332 102.398 176.129C101.844 175.918 101.367 175.664 100.969 175.367C100.57 175.07 100.262 174.719 100.043 174.312C99.8242 173.906 99.7148 173.438 99.7148 172.906C99.7148 172.391 99.8281 171.902 100.055 171.441C100.281 170.98 100.605 170.574 101.027 170.223C101.449 169.871 101.961 169.594 102.562 169.391C103.172 169.188 103.852 169.086 104.602 169.086C105.664 169.086 106.574 169.266 107.332 169.625C108.098 169.977 108.684 170.457 109.09 171.066C109.496 171.668 109.699 172.348 109.699 173.105H106.875C106.875 172.77 106.789 172.457 106.617 172.168C106.453 171.871 106.203 171.633 105.867 171.453C105.531 171.266 105.109 171.172 104.602 171.172C104.117 171.172 103.715 171.25 103.395 171.406C103.082 171.555 102.848 171.75 102.691 171.992C102.543 172.234 102.469 172.5 102.469 172.789C102.469 173 102.508 173.191 102.586 173.363C102.672 173.527 102.812 173.68 103.008 173.82C103.203 173.953 103.469 174.078 103.805 174.195C104.148 174.312 104.578 174.426 105.094 174.535C106.062 174.738 106.895 175 107.59 175.32C108.293 175.633 108.832 176.039 109.207 176.539C109.582 177.031 109.77 177.656 109.77 178.414C109.77 178.977 109.648 179.492 109.406 179.961C109.172 180.422 108.828 180.824 108.375 181.168C107.922 181.504 107.379 181.766 106.746 181.953C106.121 182.141 105.418 182.234 104.637 182.234C103.488 182.234 102.516 182.031 101.719 181.625C100.922 181.211 100.316 180.684 99.9023 180.043C99.4961 179.395 99.293 178.723 99.293 178.027H102.023C102.055 178.551 102.199 178.969 102.457 179.281C102.723 179.586 103.051 179.809 103.441 179.949C103.84 180.082 104.25 180.148 104.672 180.148C105.18 180.148 105.605 180.082 105.949 179.949C106.293 179.809 106.555 179.621 106.734 179.387C106.914 179.145 107.004 178.871 107.004 178.566ZM117.832 182.234C116.895 182.234 116.047 182.082 115.289 181.777C114.539 181.465 113.898 181.031 113.367 180.477C112.844 179.922 112.441 179.27 112.16 178.52C111.879 177.77 111.738 176.961 111.738 176.094V175.625C111.738 174.633 111.883 173.734 112.172 172.93C112.461 172.125 112.863 171.438 113.379 170.867C113.895 170.289 114.504 169.848 115.207 169.543C115.91 169.238 116.672 169.086 117.492 169.086C118.398 169.086 119.191 169.238 119.871 169.543C120.551 169.848 121.113 170.277 121.559 170.832C122.012 171.379 122.348 172.031 122.566 172.789C122.793 173.547 122.906 174.383 122.906 175.297V176.504H113.109V174.477H120.117V174.254C120.102 173.746 120 173.27 119.812 172.824C119.633 172.379 119.355 172.02 118.98 171.746C118.605 171.473 118.105 171.336 117.48 171.336C117.012 171.336 116.594 171.438 116.227 171.641C115.867 171.836 115.566 172.121 115.324 172.496C115.082 172.871 114.895 173.324 114.762 173.855C114.637 174.379 114.574 174.969 114.574 175.625V176.094C114.574 176.648 114.648 177.164 114.797 177.641C114.953 178.109 115.18 178.52 115.477 178.871C115.773 179.223 116.133 179.5 116.555 179.703C116.977 179.898 117.457 179.996 117.996 179.996C118.676 179.996 119.281 179.859 119.812 179.586C120.344 179.312 120.805 178.926 121.195 178.426L122.684 179.867C122.41 180.266 122.055 180.648 121.617 181.016C121.18 181.375 120.645 181.668 120.012 181.895C119.387 182.121 118.66 182.234 117.832 182.234Z" fill="white"/>
</svg>
