<svg width="668" height="1208" viewBox="0 0 668 1208" fill="none" xmlns="http://www.w3.org/2000/svg">
<path d="M353.403 296.162L361.092 170.465L466.105 239.972L353.403 296.162Z" stroke="#DDDDDD" stroke-width="3"/>
<path d="M307.254 631.28L382.401 462.459L491.031 611.948L307.254 631.28Z" stroke="#DDDDDD" stroke-width="3"/>
<path d="M613.912 535.914L449.621 500.765L562.206 376.059L613.912 535.914Z" stroke="#DDDDDD" stroke-width="3"/>
<path d="M197.921 765.923L33.63 730.774L146.215 606.069L197.921 765.923Z" stroke="#DDDDDD" stroke-width="3"/>
<path d="M519.75 743.216L327.204 892.636L294.075 651.177L519.75 743.216Z" stroke="#DDDDDD" stroke-width="3"/>
<circle cx="477" cy="361" r="89.5" stroke="#DDDDDD" stroke-width="3"/>
<circle cx="206" cy="542" r="107.5" stroke="#DDDDDD" stroke-width="3"/>
<circle cx="542" cy="815" r="124.5" stroke="#DDDDDD" stroke-width="3"/>
<rect x="316.5" y="1.5" width="156" height="156" stroke="#DDDDDD" stroke-width="3"/>
<rect x="42.9358" y="947.179" width="208.424" height="208.424" transform="rotate(-43.7938 42.9358 947.179)" stroke="#DDDDDD" stroke-width="3"/>
<rect x="44.1131" y="304.966" width="208.424" height="208.424" transform="rotate(-39.9571 44.1131 304.966)" stroke="#DDDDDD" stroke-width="3"/>
<rect x="332.678" y="999.147" width="208.424" height="208.424" transform="rotate(-7.29606 332.678 999.147)" stroke="#DDDDDD" stroke-width="3"/>
</svg>
