<svg width="239" height="152" viewBox="0 0 239 152" fill="none" xmlns="http://www.w3.org/2000/svg">
<circle cx="163" cy="76" r="74.5" stroke="white" stroke-width="3"/>
<path d="M4.28906 73.7344V84H1.46484V71.3203H4.16016L4.28906 73.7344ZM8.16797 71.2383L8.14453 73.8633C7.97266 73.832 7.78516 73.8086 7.58203 73.793C7.38672 73.7773 7.19141 73.7695 6.99609 73.7695C6.51172 73.7695 6.08594 73.8398 5.71875 73.9805C5.35156 74.1133 5.04297 74.3086 4.79297 74.5664C4.55078 74.8164 4.36328 75.1211 4.23047 75.4805C4.09766 75.8398 4.01953 76.2422 3.99609 76.6875L3.35156 76.7344C3.35156 75.9375 3.42969 75.1992 3.58594 74.5195C3.74219 73.8398 3.97656 73.2422 4.28906 72.7266C4.60938 72.2109 5.00781 71.8086 5.48438 71.5195C5.96875 71.2305 6.52734 71.0859 7.16016 71.0859C7.33203 71.0859 7.51562 71.1016 7.71094 71.1328C7.91406 71.1641 8.06641 71.1992 8.16797 71.2383ZM16.6641 81.457V75.4102C16.6641 74.957 16.582 74.5664 16.418 74.2383C16.2539 73.9102 16.0039 73.6562 15.668 73.4766C15.3398 73.2969 14.9258 73.207 14.4258 73.207C13.9648 73.207 13.5664 73.2852 13.2305 73.4414C12.8945 73.5977 12.6328 73.8086 12.4453 74.0742C12.2578 74.3398 12.1641 74.6406 12.1641 74.9766H9.35156C9.35156 74.4766 9.47266 73.9922 9.71484 73.5234C9.95703 73.0547 10.3086 72.6367 10.7695 72.2695C11.2305 71.9023 11.7812 71.6133 12.4219 71.4023C13.0625 71.1914 13.7812 71.0859 14.5781 71.0859C15.5312 71.0859 16.375 71.2461 17.1094 71.5664C17.8516 71.8867 18.4336 72.3711 18.8555 73.0195C19.2852 73.6602 19.5 74.4648 19.5 75.4336V81.0703C19.5 81.6484 19.5391 82.168 19.6172 82.6289C19.7031 83.082 19.8242 83.4766 19.9805 83.8125V84H17.0859C16.9531 83.6953 16.8477 83.3086 16.7695 82.8398C16.6992 82.3633 16.6641 81.9023 16.6641 81.457ZM17.0742 76.2891L17.0977 78.0352H15.0703C14.5469 78.0352 14.0859 78.0859 13.6875 78.1875C13.2891 78.2812 12.957 78.4219 12.6914 78.6094C12.4258 78.7969 12.2266 79.0234 12.0938 79.2891C11.9609 79.5547 11.8945 79.8555 11.8945 80.1914C11.8945 80.5273 11.9727 80.8359 12.1289 81.1172C12.2852 81.3906 12.5117 81.6055 12.8086 81.7617C13.1133 81.918 13.4805 81.9961 13.9102 81.9961C14.4883 81.9961 14.9922 81.8789 15.4219 81.6445C15.8594 81.4023 16.2031 81.1094 16.4531 80.7656C16.7031 80.4141 16.8359 80.082 16.8516 79.7695L17.7656 81.0234C17.6719 81.3438 17.5117 81.6875 17.2852 82.0547C17.0586 82.4219 16.7617 82.7734 16.3945 83.1094C16.0352 83.4375 15.6016 83.707 15.0938 83.918C14.5938 84.1289 14.0156 84.2344 13.3594 84.2344C12.5312 84.2344 11.793 84.0703 11.1445 83.7422C10.4961 83.4062 9.98828 82.957 9.62109 82.3945C9.25391 81.8242 9.07031 81.1797 9.07031 80.4609C9.07031 79.7891 9.19531 79.1953 9.44531 78.6797C9.70312 78.1562 10.0781 77.7188 10.5703 77.3672C11.0703 77.0156 11.6797 76.75 12.3984 76.5703C13.1172 76.3828 13.9375 76.2891 14.8594 76.2891H17.0742ZM30.1875 81.375V66H33.0234V84H30.457L30.1875 81.375ZM21.9375 77.8008V77.5547C21.9375 76.5938 22.0508 75.7188 22.2773 74.9297C22.5039 74.1328 22.832 73.4492 23.2617 72.8789C23.6914 72.3008 24.2148 71.8594 24.832 71.5547C25.4492 71.2422 26.1445 71.0859 26.918 71.0859C27.6836 71.0859 28.3555 71.2344 28.9336 71.5312C29.5117 71.8281 30.0039 72.2539 30.4102 72.8086C30.8164 73.3555 31.1406 74.0117 31.3828 74.7773C31.625 75.5352 31.7969 76.3789 31.8984 77.3086V78.0938C31.7969 79 31.625 79.8281 31.3828 80.5781C31.1406 81.3281 30.8164 81.9766 30.4102 82.5234C30.0039 83.0703 29.5078 83.4922 28.9219 83.7891C28.3438 84.0859 27.668 84.2344 26.8945 84.2344C26.1289 84.2344 25.4375 84.0742 24.8203 83.7539C24.2109 83.4336 23.6914 82.9844 23.2617 82.4062C22.832 81.8281 22.5039 81.1484 22.2773 80.3672C22.0508 79.5781 21.9375 78.7227 21.9375 77.8008ZM24.7617 77.5547V77.8008C24.7617 78.3789 24.8125 78.918 24.9141 79.418C25.0234 79.918 25.1914 80.3594 25.418 80.7422C25.6445 81.1172 25.9375 81.4141 26.2969 81.6328C26.6641 81.8438 27.1016 81.9492 27.6094 81.9492C28.25 81.9492 28.7773 81.8086 29.1914 81.5273C29.6055 81.2461 29.9297 80.8672 30.1641 80.3906C30.4062 79.9062 30.5703 79.3672 30.6562 78.7734V76.6523C30.6094 76.1914 30.5117 75.7617 30.3633 75.3633C30.2227 74.9648 30.0312 74.6172 29.7891 74.3203C29.5469 74.0156 29.2461 73.7812 28.8867 73.6172C28.5352 73.4453 28.1172 73.3594 27.6328 73.3594C27.1172 73.3594 26.6797 73.4688 26.3203 73.6875C25.9609 73.9062 25.6641 74.207 25.4297 74.5898C25.2031 74.9727 25.0352 75.418 24.9258 75.9258C24.8164 76.4336 24.7617 76.9766 24.7617 77.5547ZM39 71.3203V84H36.1641V71.3203H39ZM35.9766 67.9922C35.9766 67.5625 36.1172 67.207 36.3984 66.9258C36.6875 66.6367 37.0859 66.4922 37.5938 66.4922C38.0938 66.4922 38.4883 66.6367 38.7773 66.9258C39.0664 67.207 39.2109 67.5625 39.2109 67.9922C39.2109 68.4141 39.0664 68.7656 38.7773 69.0469C38.4883 69.3281 38.0938 69.4688 37.5938 69.4688C37.0859 69.4688 36.6875 69.3281 36.3984 69.0469C36.1172 68.7656 35.9766 68.4141 35.9766 67.9922ZM49.7227 81.0117V71.3203H52.5586V84H49.8867L49.7227 81.0117ZM50.1211 78.375L51.0703 78.3516C51.0703 79.2031 50.9766 79.9883 50.7891 80.707C50.6016 81.418 50.3125 82.0391 49.9219 82.5703C49.5312 83.0938 49.0312 83.5039 48.4219 83.8008C47.8125 84.0898 47.082 84.2344 46.2305 84.2344C45.6133 84.2344 45.0469 84.1445 44.5312 83.9648C44.0156 83.7852 43.5703 83.5078 43.1953 83.1328C42.8281 82.7578 42.543 82.2695 42.3398 81.668C42.1367 81.0664 42.0352 80.3477 42.0352 79.5117V71.3203H44.8594V79.5352C44.8594 79.9961 44.9141 80.3828 45.0234 80.6953C45.1328 81 45.2812 81.2461 45.4688 81.4336C45.6562 81.6211 45.875 81.7539 46.125 81.832C46.375 81.9102 46.6406 81.9492 46.9219 81.9492C47.7266 81.9492 48.3594 81.793 48.8203 81.4805C49.2891 81.1602 49.6211 80.7305 49.8164 80.1914C50.0195 79.6523 50.1211 79.0469 50.1211 78.375ZM62.5664 80.5664C62.5664 80.2852 62.4961 80.0312 62.3555 79.8047C62.2148 79.5703 61.9453 79.3594 61.5469 79.1719C61.1562 78.9844 60.5781 78.8125 59.8125 78.6562C59.1406 78.5078 58.5234 78.332 57.9609 78.1289C57.4062 77.918 56.9297 77.6641 56.5312 77.3672C56.1328 77.0703 55.8242 76.7188 55.6055 76.3125C55.3867 75.9062 55.2773 75.4375 55.2773 74.9062C55.2773 74.3906 55.3906 73.9023 55.6172 73.4414C55.8438 72.9805 56.168 72.5742 56.5898 72.2227C57.0117 71.8711 57.5234 71.5938 58.125 71.3906C58.7344 71.1875 59.4141 71.0859 60.1641 71.0859C61.2266 71.0859 62.1367 71.2656 62.8945 71.625C63.6602 71.9766 64.2461 72.457 64.6523 73.0664C65.0586 73.668 65.2617 74.3477 65.2617 75.1055H62.4375C62.4375 74.7695 62.3516 74.457 62.1797 74.168C62.0156 73.8711 61.7656 73.6328 61.4297 73.4531C61.0938 73.2656 60.6719 73.1719 60.1641 73.1719C59.6797 73.1719 59.2773 73.25 58.957 73.4062C58.6445 73.5547 58.4102 73.75 58.2539 73.9922C58.1055 74.2344 58.0312 74.5 58.0312 74.7891C58.0312 75 58.0703 75.1914 58.1484 75.3633C58.2344 75.5273 58.375 75.6797 58.5703 75.8203C58.7656 75.9531 59.0312 76.0781 59.3672 76.1953C59.7109 76.3125 60.1406 76.4258 60.6562 76.5352C61.625 76.7383 62.457 77 63.1523 77.3203C63.8555 77.6328 64.3945 78.0391 64.7695 78.5391C65.1445 79.0312 65.332 79.6562 65.332 80.4141C65.332 80.9766 65.2109 81.4922 64.9688 81.9609C64.7344 82.4219 64.3906 82.8242 63.9375 83.168C63.4844 83.5039 62.9414 83.7656 62.3086 83.9531C61.6836 84.1406 60.9805 84.2344 60.1992 84.2344C59.0508 84.2344 58.0781 84.0312 57.2812 83.625C56.4844 83.2109 55.8789 82.6836 55.4648 82.043C55.0586 81.3945 54.8555 80.7227 54.8555 80.0273H57.5859C57.6172 80.5508 57.7617 80.9688 58.0195 81.2812C58.2852 81.5859 58.6133 81.8086 59.0039 81.9492C59.4023 82.082 59.8125 82.1484 60.2344 82.1484C60.7422 82.1484 61.168 82.082 61.5117 81.9492C61.8555 81.8086 62.1172 81.6211 62.2969 81.3867C62.4766 81.1445 62.5664 80.8711 62.5664 80.5664Z" fill="white"/>
<path d="M125.289 87.7344V98H122.465V85.3203H125.16L125.289 87.7344ZM129.168 85.2383L129.145 87.8633C128.973 87.832 128.785 87.8086 128.582 87.793C128.387 87.7773 128.191 87.7695 127.996 87.7695C127.512 87.7695 127.086 87.8398 126.719 87.9805C126.352 88.1133 126.043 88.3086 125.793 88.5664C125.551 88.8164 125.363 89.1211 125.23 89.4805C125.098 89.8398 125.02 90.2422 124.996 90.6875L124.352 90.7344C124.352 89.9375 124.43 89.1992 124.586 88.5195C124.742 87.8398 124.977 87.2422 125.289 86.7266C125.609 86.2109 126.008 85.8086 126.484 85.5195C126.969 85.2305 127.527 85.0859 128.16 85.0859C128.332 85.0859 128.516 85.1016 128.711 85.1328C128.914 85.1641 129.066 85.1992 129.168 85.2383Z" fill="white"/>
<line x1="90" y1="75" x2="163" y2="75" stroke="white" stroke-width="2" stroke-dasharray="4 4"/>
<line x1="158.354" y1="70.6464" x2="166.354" y2="78.6464" stroke="white"/>
<line x1="158.646" y1="78.6464" x2="166.646" y2="70.6464" stroke="white"/>
</svg>
