<svg width="212" height="163" viewBox="0 0 212 163" fill="none" xmlns="http://www.w3.org/2000/svg">
<rect x="82.5" y="33.5" width="128" height="128" stroke="white" stroke-width="3"/>
<path d="M4.24219 88V106H1.42969V88H4.24219ZM3.75 99.1914L2.83594 99.1797C2.84375 98.3047 2.96484 97.4961 3.19922 96.7539C3.44141 96.0117 3.77734 95.3672 4.20703 94.8203C4.64453 94.2656 5.16797 93.8398 5.77734 93.543C6.38672 93.2383 7.0625 93.0859 7.80469 93.0859C8.42969 93.0859 8.99219 93.1719 9.49219 93.3438C10 93.5156 10.4375 93.793 10.8047 94.1758C11.1719 94.5508 11.4492 95.043 11.6367 95.6523C11.832 96.2539 11.9297 96.9883 11.9297 97.8555V106H9.09375V97.832C9.09375 97.2227 9.00391 96.7383 8.82422 96.3789C8.65234 96.0195 8.39844 95.7617 8.0625 95.6055C7.72656 95.4414 7.31641 95.3594 6.83203 95.3594C6.32422 95.3594 5.875 95.4609 5.48438 95.6641C5.10156 95.8672 4.78125 96.1445 4.52344 96.4961C4.26562 96.8477 4.07031 97.2539 3.9375 97.7148C3.8125 98.1758 3.75 98.668 3.75 99.1914ZM20.3789 106.234C19.4414 106.234 18.5938 106.082 17.8359 105.777C17.0859 105.465 16.4453 105.031 15.9141 104.477C15.3906 103.922 14.9883 103.27 14.707 102.52C14.4258 101.77 14.2852 100.961 14.2852 100.094V99.625C14.2852 98.6328 14.4297 97.7344 14.7188 96.9297C15.0078 96.125 15.4102 95.4375 15.9258 94.8672C16.4414 94.2891 17.0508 93.8477 17.7539 93.543C18.457 93.2383 19.2188 93.0859 20.0391 93.0859C20.9453 93.0859 21.7383 93.2383 22.418 93.543C23.0977 93.8477 23.6602 94.2773 24.1055 94.832C24.5586 95.3789 24.8945 96.0312 25.1133 96.7891C25.3398 97.5469 25.4531 98.3828 25.4531 99.2969V100.504H15.6562V98.4766H22.6641V98.2539C22.6484 97.7461 22.5469 97.2695 22.3594 96.8242C22.1797 96.3789 21.9023 96.0195 21.5273 95.7461C21.1523 95.4727 20.6523 95.3359 20.0273 95.3359C19.5586 95.3359 19.1406 95.4375 18.7734 95.6406C18.4141 95.8359 18.1133 96.1211 17.8711 96.4961C17.6289 96.8711 17.4414 97.3242 17.3086 97.8555C17.1836 98.3789 17.1211 98.9688 17.1211 99.625V100.094C17.1211 100.648 17.1953 101.164 17.3438 101.641C17.5 102.109 17.7266 102.52 18.0234 102.871C18.3203 103.223 18.6797 103.5 19.1016 103.703C19.5234 103.898 20.0039 103.996 20.543 103.996C21.2227 103.996 21.8281 103.859 22.3594 103.586C22.8906 103.312 23.3516 102.926 23.7422 102.426L25.2305 103.867C24.957 104.266 24.6016 104.648 24.1641 105.016C23.7266 105.375 23.1914 105.668 22.5586 105.895C21.9336 106.121 21.207 106.234 20.3789 106.234ZM30.6797 93.3203V106H27.8438V93.3203H30.6797ZM27.6562 89.9922C27.6562 89.5625 27.7969 89.207 28.0781 88.9258C28.3672 88.6367 28.7656 88.4922 29.2734 88.4922C29.7734 88.4922 30.168 88.6367 30.457 88.9258C30.7461 89.207 30.8906 89.5625 30.8906 89.9922C30.8906 90.4141 30.7461 90.7656 30.457 91.0469C30.168 91.3281 29.7734 91.4688 29.2734 91.4688C28.7656 91.4688 28.3672 91.3281 28.0781 91.0469C27.7969 90.7656 27.6562 90.4141 27.6562 89.9922ZM41.8945 93.3203H44.4609V105.648C44.4609 106.789 44.2188 107.758 43.7344 108.555C43.25 109.352 42.5742 109.957 41.707 110.371C40.8398 110.793 39.8359 111.004 38.6953 111.004C38.2109 111.004 37.6719 110.934 37.0781 110.793C36.4922 110.652 35.9219 110.426 35.3672 110.113C34.8203 109.809 34.3633 109.406 33.9961 108.906L35.3203 107.242C35.7734 107.781 36.2734 108.176 36.8203 108.426C37.3672 108.676 37.9414 108.801 38.543 108.801C39.1914 108.801 39.7422 108.68 40.1953 108.438C40.6562 108.203 41.0117 107.855 41.2617 107.395C41.5117 106.934 41.6367 106.371 41.6367 105.707V96.1914L41.8945 93.3203ZM33.2812 99.8008V99.5547C33.2812 98.5938 33.3984 97.7188 33.6328 96.9297C33.8672 96.1328 34.2031 95.4492 34.6406 94.8789C35.0781 94.3008 35.6094 93.8594 36.2344 93.5547C36.8594 93.2422 37.5664 93.0859 38.3555 93.0859C39.1758 93.0859 39.875 93.2344 40.4531 93.5312C41.0391 93.8281 41.5273 94.2539 41.918 94.8086C42.3086 95.3555 42.6133 96.0117 42.832 96.7773C43.0586 97.5352 43.2266 98.3789 43.3359 99.3086V100.094C43.2344 101 43.0625 101.828 42.8203 102.578C42.5781 103.328 42.2578 103.977 41.8594 104.523C41.4609 105.07 40.9688 105.492 40.3828 105.789C39.8047 106.086 39.1211 106.234 38.332 106.234C37.5586 106.234 36.8594 106.074 36.2344 105.754C35.6172 105.434 35.0859 104.984 34.6406 104.406C34.2031 103.828 33.8672 103.148 33.6328 102.367C33.3984 101.578 33.2812 100.723 33.2812 99.8008ZM36.1055 99.5547V99.8008C36.1055 100.379 36.1602 100.918 36.2695 101.418C36.3867 101.918 36.5625 102.359 36.7969 102.742C37.0391 103.117 37.3438 103.414 37.7109 103.633C38.0859 103.844 38.5273 103.949 39.0352 103.949C39.6992 103.949 40.2422 103.809 40.6641 103.527C41.0938 103.246 41.4219 102.867 41.6484 102.391C41.8828 101.906 42.0469 101.367 42.1406 100.773V98.6523C42.0938 98.1914 41.9961 97.7617 41.8477 97.3633C41.707 96.9648 41.5156 96.6172 41.2734 96.3203C41.0312 96.0156 40.7266 95.7812 40.3594 95.6172C39.9922 95.4453 39.5586 95.3594 39.0586 95.3594C38.5508 95.3594 38.1094 95.4688 37.7344 95.6875C37.3594 95.9062 37.0508 96.207 36.8086 96.5898C36.5742 96.9727 36.3984 97.418 36.2812 97.9258C36.1641 98.4336 36.1055 98.9766 36.1055 99.5547ZM50.1797 88V106H47.3672V88H50.1797ZM49.6875 99.1914L48.7734 99.1797C48.7812 98.3047 48.9023 97.4961 49.1367 96.7539C49.3789 96.0117 49.7148 95.3672 50.1445 94.8203C50.582 94.2656 51.1055 93.8398 51.7148 93.543C52.3242 93.2383 53 93.0859 53.7422 93.0859C54.3672 93.0859 54.9297 93.1719 55.4297 93.3438C55.9375 93.5156 56.375 93.793 56.7422 94.1758C57.1094 94.5508 57.3867 95.043 57.5742 95.6523C57.7695 96.2539 57.8672 96.9883 57.8672 97.8555V106H55.0312V97.832C55.0312 97.2227 54.9414 96.7383 54.7617 96.3789C54.5898 96.0195 54.3359 95.7617 54 95.6055C53.6641 95.4414 53.2539 95.3594 52.7695 95.3594C52.2617 95.3594 51.8125 95.4609 51.4219 95.6641C51.0391 95.8672 50.7188 96.1445 50.4609 96.4961C50.2031 96.8477 50.0078 97.2539 49.875 97.7148C49.75 98.1758 49.6875 98.668 49.6875 99.1914ZM66.5391 93.3203V95.3828H59.3906V93.3203H66.5391ZM61.4531 90.2148H64.2773V102.496C64.2773 102.887 64.332 103.188 64.4414 103.398C64.5586 103.602 64.7188 103.738 64.9219 103.809C65.125 103.879 65.3633 103.914 65.6367 103.914C65.832 103.914 66.0195 103.902 66.1992 103.879C66.3789 103.855 66.5234 103.832 66.6328 103.809L66.6445 105.965C66.4102 106.035 66.1367 106.098 65.8242 106.152C65.5195 106.207 65.168 106.234 64.7695 106.234C64.1211 106.234 63.5469 106.121 63.0469 105.895C62.5469 105.66 62.1562 105.281 61.875 104.758C61.5938 104.234 61.4531 103.539 61.4531 102.672V90.2148Z" fill="white"/>
<path d="M124.898 19.1875L127.828 9.32031H129.633L129.141 12.2734L126.188 22H124.57L124.898 19.1875ZM123.176 9.32031L125.461 19.2344L125.648 22H123.844L120.41 9.32031H123.176ZM132.375 19.1172L134.59 9.32031H137.344L133.922 22H132.117L132.375 19.1172ZM129.938 9.32031L132.832 19.0703L133.195 22H131.578L128.59 12.2617L128.098 9.32031H129.938ZM142.289 9.32031V22H139.453V9.32031H142.289ZM139.266 5.99219C139.266 5.5625 139.406 5.20703 139.688 4.92578C139.977 4.63672 140.375 4.49219 140.883 4.49219C141.383 4.49219 141.777 4.63672 142.066 4.92578C142.355 5.20703 142.5 5.5625 142.5 5.99219C142.5 6.41406 142.355 6.76562 142.066 7.04688C141.777 7.32812 141.383 7.46875 140.883 7.46875C140.375 7.46875 139.977 7.32812 139.688 7.04688C139.406 6.76562 139.266 6.41406 139.266 5.99219ZM153.117 19.375V4H155.953V22H153.387L153.117 19.375ZM144.867 15.8008V15.5547C144.867 14.5938 144.98 13.7188 145.207 12.9297C145.434 12.1328 145.762 11.4492 146.191 10.8789C146.621 10.3008 147.145 9.85938 147.762 9.55469C148.379 9.24219 149.074 9.08594 149.848 9.08594C150.613 9.08594 151.285 9.23438 151.863 9.53125C152.441 9.82812 152.934 10.2539 153.34 10.8086C153.746 11.3555 154.07 12.0117 154.312 12.7773C154.555 13.5352 154.727 14.3789 154.828 15.3086V16.0938C154.727 17 154.555 17.8281 154.312 18.5781C154.07 19.3281 153.746 19.9766 153.34 20.5234C152.934 21.0703 152.438 21.4922 151.852 21.7891C151.273 22.0859 150.598 22.2344 149.824 22.2344C149.059 22.2344 148.367 22.0742 147.75 21.7539C147.141 21.4336 146.621 20.9844 146.191 20.4062C145.762 19.8281 145.434 19.1484 145.207 18.3672C144.98 17.5781 144.867 16.7227 144.867 15.8008ZM147.691 15.5547V15.8008C147.691 16.3789 147.742 16.918 147.844 17.418C147.953 17.918 148.121 18.3594 148.348 18.7422C148.574 19.1172 148.867 19.4141 149.227 19.6328C149.594 19.8438 150.031 19.9492 150.539 19.9492C151.18 19.9492 151.707 19.8086 152.121 19.5273C152.535 19.2461 152.859 18.8672 153.094 18.3906C153.336 17.9062 153.5 17.3672 153.586 16.7734V14.6523C153.539 14.1914 153.441 13.7617 153.293 13.3633C153.152 12.9648 152.961 12.6172 152.719 12.3203C152.477 12.0156 152.176 11.7812 151.816 11.6172C151.465 11.4453 151.047 11.3594 150.562 11.3594C150.047 11.3594 149.609 11.4688 149.25 11.6875C148.891 11.9062 148.594 12.207 148.359 12.5898C148.133 12.9727 147.965 13.418 147.855 13.9258C147.746 14.4336 147.691 14.9766 147.691 15.5547ZM164.719 9.32031V11.3828H157.57V9.32031H164.719ZM159.633 6.21484H162.457V18.4961C162.457 18.8867 162.512 19.1875 162.621 19.3984C162.738 19.6016 162.898 19.7383 163.102 19.8086C163.305 19.8789 163.543 19.9141 163.816 19.9141C164.012 19.9141 164.199 19.9023 164.379 19.8789C164.559 19.8555 164.703 19.832 164.812 19.8086L164.824 21.9648C164.59 22.0352 164.316 22.0977 164.004 22.1523C163.699 22.207 163.348 22.2344 162.949 22.2344C162.301 22.2344 161.727 22.1211 161.227 21.8945C160.727 21.6602 160.336 21.2812 160.055 20.7578C159.773 20.2344 159.633 19.5391 159.633 18.6719V6.21484ZM169.688 4V22H166.875V4H169.688ZM169.195 15.1914L168.281 15.1797C168.289 14.3047 168.41 13.4961 168.645 12.7539C168.887 12.0117 169.223 11.3672 169.652 10.8203C170.09 10.2656 170.613 9.83984 171.223 9.54297C171.832 9.23828 172.508 9.08594 173.25 9.08594C173.875 9.08594 174.438 9.17188 174.938 9.34375C175.445 9.51562 175.883 9.79297 176.25 10.1758C176.617 10.5508 176.895 11.043 177.082 11.6523C177.277 12.2539 177.375 12.9883 177.375 13.8555V22H174.539V13.832C174.539 13.2227 174.449 12.7383 174.27 12.3789C174.098 12.0195 173.844 11.7617 173.508 11.6055C173.172 11.4414 172.762 11.3594 172.277 11.3594C171.77 11.3594 171.32 11.4609 170.93 11.6641C170.547 11.8672 170.227 12.1445 169.969 12.4961C169.711 12.8477 169.516 13.2539 169.383 13.7148C169.258 14.1758 169.195 14.668 169.195 15.1914Z" fill="white"/>
</svg>
