<svg width="251" height="200" viewBox="0 0 251 200" fill="none" xmlns="http://www.w3.org/2000/svg">
<path d="M38.1085 148.5L122.113 3.00001L206.117 148.5H38.1085Z" stroke="white" stroke-width="3"/>
<path d="M8.56641 63.5664C8.56641 63.2852 8.49609 63.0312 8.35547 62.8047C8.21484 62.5703 7.94531 62.3594 7.54688 62.1719C7.15625 61.9844 6.57812 61.8125 5.8125 61.6562C5.14062 61.5078 4.52344 61.332 3.96094 61.1289C3.40625 60.918 2.92969 60.6641 2.53125 60.3672C2.13281 60.0703 1.82422 59.7188 1.60547 59.3125C1.38672 58.9062 1.27734 58.4375 1.27734 57.9062C1.27734 57.3906 1.39062 56.9023 1.61719 56.4414C1.84375 55.9805 2.16797 55.5742 2.58984 55.2227C3.01172 54.8711 3.52344 54.5938 4.125 54.3906C4.73438 54.1875 5.41406 54.0859 6.16406 54.0859C7.22656 54.0859 8.13672 54.2656 8.89453 54.625C9.66016 54.9766 10.2461 55.457 10.6523 56.0664C11.0586 56.668 11.2617 57.3477 11.2617 58.1055H8.4375C8.4375 57.7695 8.35156 57.457 8.17969 57.168C8.01562 56.8711 7.76562 56.6328 7.42969 56.4531C7.09375 56.2656 6.67188 56.1719 6.16406 56.1719C5.67969 56.1719 5.27734 56.25 4.95703 56.4062C4.64453 56.5547 4.41016 56.75 4.25391 56.9922C4.10547 57.2344 4.03125 57.5 4.03125 57.7891C4.03125 58 4.07031 58.1914 4.14844 58.3633C4.23438 58.5273 4.375 58.6797 4.57031 58.8203C4.76562 58.9531 5.03125 59.0781 5.36719 59.1953C5.71094 59.3125 6.14062 59.4258 6.65625 59.5352C7.625 59.7383 8.45703 60 9.15234 60.3203C9.85547 60.6328 10.3945 61.0391 10.7695 61.5391C11.1445 62.0312 11.332 62.6562 11.332 63.4141C11.332 63.9766 11.2109 64.4922 10.9688 64.9609C10.7344 65.4219 10.3906 65.8242 9.9375 66.168C9.48438 66.5039 8.94141 66.7656 8.30859 66.9531C7.68359 67.1406 6.98047 67.2344 6.19922 67.2344C5.05078 67.2344 4.07812 67.0312 3.28125 66.625C2.48438 66.2109 1.87891 65.6836 1.46484 65.043C1.05859 64.3945 0.855469 63.7227 0.855469 63.0273H3.58594C3.61719 63.5508 3.76172 63.9688 4.01953 64.2812C4.28516 64.5859 4.61328 64.8086 5.00391 64.9492C5.40234 65.082 5.8125 65.1484 6.23438 65.1484C6.74219 65.1484 7.16797 65.082 7.51172 64.9492C7.85547 64.8086 8.11719 64.6211 8.29688 64.3867C8.47656 64.1445 8.56641 63.8711 8.56641 63.5664ZM16.8281 54.3203V67H13.9922V54.3203H16.8281ZM13.8047 50.9922C13.8047 50.5625 13.9453 50.207 14.2266 49.9258C14.5156 49.6367 14.9141 49.4922 15.4219 49.4922C15.9219 49.4922 16.3164 49.6367 16.6055 49.9258C16.8945 50.207 17.0391 50.5625 17.0391 50.9922C17.0391 51.4141 16.8945 51.7656 16.6055 52.0469C16.3164 52.3281 15.9219 52.4688 15.4219 52.4688C14.9141 52.4688 14.5156 52.3281 14.2266 52.0469C13.9453 51.7656 13.8047 51.4141 13.8047 50.9922ZM27.6562 64.375V49H30.4922V67H27.9258L27.6562 64.375ZM19.4062 60.8008V60.5547C19.4062 59.5938 19.5195 58.7188 19.7461 57.9297C19.9727 57.1328 20.3008 56.4492 20.7305 55.8789C21.1602 55.3008 21.6836 54.8594 22.3008 54.5547C22.918 54.2422 23.6133 54.0859 24.3867 54.0859C25.1523 54.0859 25.8242 54.2344 26.4023 54.5312C26.9805 54.8281 27.4727 55.2539 27.8789 55.8086C28.2852 56.3555 28.6094 57.0117 28.8516 57.7773C29.0938 58.5352 29.2656 59.3789 29.3672 60.3086V61.0938C29.2656 62 29.0938 62.8281 28.8516 63.5781C28.6094 64.3281 28.2852 64.9766 27.8789 65.5234C27.4727 66.0703 26.9766 66.4922 26.3906 66.7891C25.8125 67.0859 25.1367 67.2344 24.3633 67.2344C23.5977 67.2344 22.9062 67.0742 22.2891 66.7539C21.6797 66.4336 21.1602 65.9844 20.7305 65.4062C20.3008 64.8281 19.9727 64.1484 19.7461 63.3672C19.5195 62.5781 19.4062 61.7227 19.4062 60.8008ZM22.2305 60.5547V60.8008C22.2305 61.3789 22.2812 61.918 22.3828 62.418C22.4922 62.918 22.6602 63.3594 22.8867 63.7422C23.1133 64.1172 23.4062 64.4141 23.7656 64.6328C24.1328 64.8438 24.5703 64.9492 25.0781 64.9492C25.7188 64.9492 26.2461 64.8086 26.6602 64.5273C27.0742 64.2461 27.3984 63.8672 27.6328 63.3906C27.875 62.9062 28.0391 62.3672 28.125 61.7734V59.6523C28.0781 59.1914 27.9805 58.7617 27.832 58.3633C27.6914 57.9648 27.5 57.6172 27.2578 57.3203C27.0156 57.0156 26.7148 56.7812 26.3555 56.6172C26.0039 56.4453 25.5859 56.3594 25.1016 56.3594C24.5859 56.3594 24.1484 56.4688 23.7891 56.6875C23.4297 56.9062 23.1328 57.207 22.8984 57.5898C22.6719 57.9727 22.5039 58.418 22.3945 58.9258C22.2852 59.4336 22.2305 59.9766 22.2305 60.5547ZM39.0352 67.2344C38.0977 67.2344 37.25 67.082 36.4922 66.7773C35.7422 66.4648 35.1016 66.0312 34.5703 65.4766C34.0469 64.9219 33.6445 64.2695 33.3633 63.5195C33.082 62.7695 32.9414 61.9609 32.9414 61.0938V60.625C32.9414 59.6328 33.0859 58.7344 33.375 57.9297C33.6641 57.125 34.0664 56.4375 34.582 55.8672C35.0977 55.2891 35.707 54.8477 36.4102 54.543C37.1133 54.2383 37.875 54.0859 38.6953 54.0859C39.6016 54.0859 40.3945 54.2383 41.0742 54.543C41.7539 54.8477 42.3164 55.2773 42.7617 55.832C43.2148 56.3789 43.5508 57.0312 43.7695 57.7891C43.9961 58.5469 44.1094 59.3828 44.1094 60.2969V61.5039H34.3125V59.4766H41.3203V59.2539C41.3047 58.7461 41.2031 58.2695 41.0156 57.8242C40.8359 57.3789 40.5586 57.0195 40.1836 56.7461C39.8086 56.4727 39.3086 56.3359 38.6836 56.3359C38.2148 56.3359 37.7969 56.4375 37.4297 56.6406C37.0703 56.8359 36.7695 57.1211 36.5273 57.4961C36.2852 57.8711 36.0977 58.3242 35.9648 58.8555C35.8398 59.3789 35.7773 59.9688 35.7773 60.625V61.0938C35.7773 61.6484 35.8516 62.1641 36 62.6406C36.1562 63.1094 36.3828 63.5195 36.6797 63.8711C36.9766 64.2227 37.3359 64.5 37.7578 64.7031C38.1797 64.8984 38.6602 64.9961 39.1992 64.9961C39.8789 64.9961 40.4844 64.8594 41.0156 64.5859C41.5469 64.3125 42.0078 63.9258 42.3984 63.4258L43.8867 64.8672C43.6133 65.2656 43.2578 65.6484 42.8203 66.0156C42.3828 66.375 41.8477 66.668 41.2148 66.8945C40.5898 67.1211 39.8633 67.2344 39.0352 67.2344ZM59.2148 52.2109L54.1172 67H51.0352L57.457 49.9375H59.4258L59.2148 52.2109ZM63.4805 67L58.3711 52.2109L58.1484 49.9375H60.1289L66.5742 67H63.4805ZM63.2344 60.6719V63.0039H53.9531V60.6719H63.2344Z" fill="white"/>
<path d="M187.566 63.5664C187.566 63.2852 187.496 63.0312 187.355 62.8047C187.215 62.5703 186.945 62.3594 186.547 62.1719C186.156 61.9844 185.578 61.8125 184.812 61.6562C184.141 61.5078 183.523 61.332 182.961 61.1289C182.406 60.918 181.93 60.6641 181.531 60.3672C181.133 60.0703 180.824 59.7188 180.605 59.3125C180.387 58.9062 180.277 58.4375 180.277 57.9062C180.277 57.3906 180.391 56.9023 180.617 56.4414C180.844 55.9805 181.168 55.5742 181.59 55.2227C182.012 54.8711 182.523 54.5938 183.125 54.3906C183.734 54.1875 184.414 54.0859 185.164 54.0859C186.227 54.0859 187.137 54.2656 187.895 54.625C188.66 54.9766 189.246 55.457 189.652 56.0664C190.059 56.668 190.262 57.3477 190.262 58.1055H187.438C187.438 57.7695 187.352 57.457 187.18 57.168C187.016 56.8711 186.766 56.6328 186.43 56.4531C186.094 56.2656 185.672 56.1719 185.164 56.1719C184.68 56.1719 184.277 56.25 183.957 56.4062C183.645 56.5547 183.41 56.75 183.254 56.9922C183.105 57.2344 183.031 57.5 183.031 57.7891C183.031 58 183.07 58.1914 183.148 58.3633C183.234 58.5273 183.375 58.6797 183.57 58.8203C183.766 58.9531 184.031 59.0781 184.367 59.1953C184.711 59.3125 185.141 59.4258 185.656 59.5352C186.625 59.7383 187.457 60 188.152 60.3203C188.855 60.6328 189.395 61.0391 189.77 61.5391C190.145 62.0312 190.332 62.6562 190.332 63.4141C190.332 63.9766 190.211 64.4922 189.969 64.9609C189.734 65.4219 189.391 65.8242 188.938 66.168C188.484 66.5039 187.941 66.7656 187.309 66.9531C186.684 67.1406 185.98 67.2344 185.199 67.2344C184.051 67.2344 183.078 67.0312 182.281 66.625C181.484 66.2109 180.879 65.6836 180.465 65.043C180.059 64.3945 179.855 63.7227 179.855 63.0273H182.586C182.617 63.5508 182.762 63.9688 183.02 64.2812C183.285 64.5859 183.613 64.8086 184.004 64.9492C184.402 65.082 184.812 65.1484 185.234 65.1484C185.742 65.1484 186.168 65.082 186.512 64.9492C186.855 64.8086 187.117 64.6211 187.297 64.3867C187.477 64.1445 187.566 63.8711 187.566 63.5664ZM195.828 54.3203V67H192.992V54.3203H195.828ZM192.805 50.9922C192.805 50.5625 192.945 50.207 193.227 49.9258C193.516 49.6367 193.914 49.4922 194.422 49.4922C194.922 49.4922 195.316 49.6367 195.605 49.9258C195.895 50.207 196.039 50.5625 196.039 50.9922C196.039 51.4141 195.895 51.7656 195.605 52.0469C195.316 52.3281 194.922 52.4688 194.422 52.4688C193.914 52.4688 193.516 52.3281 193.227 52.0469C192.945 51.7656 192.805 51.4141 192.805 50.9922ZM206.656 64.375V49H209.492V67H206.926L206.656 64.375ZM198.406 60.8008V60.5547C198.406 59.5938 198.52 58.7188 198.746 57.9297C198.973 57.1328 199.301 56.4492 199.73 55.8789C200.16 55.3008 200.684 54.8594 201.301 54.5547C201.918 54.2422 202.613 54.0859 203.387 54.0859C204.152 54.0859 204.824 54.2344 205.402 54.5312C205.98 54.8281 206.473 55.2539 206.879 55.8086C207.285 56.3555 207.609 57.0117 207.852 57.7773C208.094 58.5352 208.266 59.3789 208.367 60.3086V61.0938C208.266 62 208.094 62.8281 207.852 63.5781C207.609 64.3281 207.285 64.9766 206.879 65.5234C206.473 66.0703 205.977 66.4922 205.391 66.7891C204.812 67.0859 204.137 67.2344 203.363 67.2344C202.598 67.2344 201.906 67.0742 201.289 66.7539C200.68 66.4336 200.16 65.9844 199.73 65.4062C199.301 64.8281 198.973 64.1484 198.746 63.3672C198.52 62.5781 198.406 61.7227 198.406 60.8008ZM201.23 60.5547V60.8008C201.23 61.3789 201.281 61.918 201.383 62.418C201.492 62.918 201.66 63.3594 201.887 63.7422C202.113 64.1172 202.406 64.4141 202.766 64.6328C203.133 64.8438 203.57 64.9492 204.078 64.9492C204.719 64.9492 205.246 64.8086 205.66 64.5273C206.074 64.2461 206.398 63.8672 206.633 63.3906C206.875 62.9062 207.039 62.3672 207.125 61.7734V59.6523C207.078 59.1914 206.98 58.7617 206.832 58.3633C206.691 57.9648 206.5 57.6172 206.258 57.3203C206.016 57.0156 205.715 56.7812 205.355 56.6172C205.004 56.4453 204.586 56.3594 204.102 56.3594C203.586 56.3594 203.148 56.4688 202.789 56.6875C202.43 56.9062 202.133 57.207 201.898 57.5898C201.672 57.9727 201.504 58.418 201.395 58.9258C201.285 59.4336 201.23 59.9766 201.23 60.5547ZM218.035 67.2344C217.098 67.2344 216.25 67.082 215.492 66.7773C214.742 66.4648 214.102 66.0312 213.57 65.4766C213.047 64.9219 212.645 64.2695 212.363 63.5195C212.082 62.7695 211.941 61.9609 211.941 61.0938V60.625C211.941 59.6328 212.086 58.7344 212.375 57.9297C212.664 57.125 213.066 56.4375 213.582 55.8672C214.098 55.2891 214.707 54.8477 215.41 54.543C216.113 54.2383 216.875 54.0859 217.695 54.0859C218.602 54.0859 219.395 54.2383 220.074 54.543C220.754 54.8477 221.316 55.2773 221.762 55.832C222.215 56.3789 222.551 57.0312 222.77 57.7891C222.996 58.5469 223.109 59.3828 223.109 60.2969V61.5039H213.312V59.4766H220.32V59.2539C220.305 58.7461 220.203 58.2695 220.016 57.8242C219.836 57.3789 219.559 57.0195 219.184 56.7461C218.809 56.4727 218.309 56.3359 217.684 56.3359C217.215 56.3359 216.797 56.4375 216.43 56.6406C216.07 56.8359 215.77 57.1211 215.527 57.4961C215.285 57.8711 215.098 58.3242 214.965 58.8555C214.84 59.3789 214.777 59.9688 214.777 60.625V61.0938C214.777 61.6484 214.852 62.1641 215 62.6406C215.156 63.1094 215.383 63.5195 215.68 63.8711C215.977 64.2227 216.336 64.5 216.758 64.7031C217.18 64.8984 217.66 64.9961 218.199 64.9961C218.879 64.9961 219.484 64.8594 220.016 64.5859C220.547 64.3125 221.008 63.9258 221.398 63.4258L222.887 64.8672C222.613 65.2656 222.258 65.6484 221.82 66.0156C221.383 66.375 220.848 66.668 220.215 66.8945C219.59 67.1211 218.863 67.2344 218.035 67.2344ZM237.969 59.2891H233.621L233.598 57.1445H237.395C238.035 57.1445 238.578 57.0508 239.023 56.8633C239.477 56.668 239.82 56.3906 240.055 56.0312C240.289 55.6641 240.406 55.2227 240.406 54.707C240.406 54.1367 240.297 53.6719 240.078 53.3125C239.859 52.9531 239.523 52.6914 239.07 52.5273C238.625 52.3633 238.055 52.2812 237.359 52.2812H234.512V67H231.57V49.9375H237.359C238.297 49.9375 239.133 50.0273 239.867 50.207C240.609 50.3867 241.238 50.668 241.754 51.0508C242.277 51.4258 242.672 51.9023 242.938 52.4805C243.211 53.0586 243.348 53.7461 243.348 54.543C243.348 55.2461 243.18 55.8906 242.844 56.4766C242.508 57.0547 242.012 57.5273 241.355 57.8945C240.699 58.2617 239.883 58.4805 238.906 58.5508L237.969 59.2891ZM237.84 67H232.695L234.02 64.668H237.84C238.504 64.668 239.059 64.5586 239.504 64.3398C239.949 64.1133 240.281 63.8047 240.5 63.4141C240.727 63.0156 240.84 62.5508 240.84 62.0195C240.84 61.4648 240.742 60.9844 240.547 60.5781C240.352 60.1641 240.043 59.8477 239.621 59.6289C239.199 59.4023 238.648 59.2891 237.969 59.2891H234.664L234.688 57.1445H238.988L239.656 57.9531C240.594 57.9844 241.363 58.1914 241.965 58.5742C242.574 58.957 243.027 59.4531 243.324 60.0625C243.621 60.6719 243.77 61.3281 243.77 62.0312C243.77 63.1172 243.531 64.0273 243.055 64.7617C242.586 65.4961 241.91 66.0547 241.027 66.4375C240.145 66.8125 239.082 67 237.84 67Z" fill="white"/>
<path d="M135.242 82V100H132.43V82H135.242ZM134.75 93.1914L133.836 93.1797C133.844 92.3047 133.965 91.4961 134.199 90.7539C134.441 90.0117 134.777 89.3672 135.207 88.8203C135.645 88.2656 136.168 87.8398 136.777 87.543C137.387 87.2383 138.062 87.0859 138.805 87.0859C139.43 87.0859 139.992 87.1719 140.492 87.3438C141 87.5156 141.438 87.793 141.805 88.1758C142.172 88.5508 142.449 89.043 142.637 89.6523C142.832 90.2539 142.93 90.9883 142.93 91.8555V100H140.094V91.832C140.094 91.2227 140.004 90.7383 139.824 90.3789C139.652 90.0195 139.398 89.7617 139.062 89.6055C138.727 89.4414 138.316 89.3594 137.832 89.3594C137.324 89.3594 136.875 89.4609 136.484 89.6641C136.102 89.8672 135.781 90.1445 135.523 90.4961C135.266 90.8477 135.07 91.2539 134.938 91.7148C134.812 92.1758 134.75 92.668 134.75 93.1914Z" fill="white"/>
<path d="M95.4648 157H98.2891V172.293L98.0195 175H95.4648V157ZM106.562 168.543V168.789C106.562 169.727 106.457 170.59 106.246 171.379C106.043 172.16 105.73 172.84 105.309 173.418C104.895 173.996 104.379 174.445 103.762 174.766C103.152 175.078 102.445 175.234 101.641 175.234C100.852 175.234 100.164 175.086 99.5781 174.789C98.9922 174.492 98.5 174.07 98.1016 173.523C97.7109 172.977 97.3945 172.324 97.1523 171.566C96.9102 170.809 96.7383 169.973 96.6367 169.059V168.273C96.7383 167.352 96.9102 166.516 97.1523 165.766C97.3945 165.008 97.7109 164.355 98.1016 163.809C98.5 163.254 98.9883 162.828 99.5664 162.531C100.152 162.234 100.836 162.086 101.617 162.086C102.43 162.086 103.145 162.242 103.762 162.555C104.387 162.867 104.906 163.312 105.32 163.891C105.734 164.461 106.043 165.141 106.246 165.93C106.457 166.719 106.562 167.59 106.562 168.543ZM103.738 168.789V168.543C103.738 167.973 103.691 167.438 103.598 166.938C103.504 166.43 103.348 165.984 103.129 165.602C102.918 165.219 102.629 164.918 102.262 164.699C101.902 164.473 101.453 164.359 100.914 164.359C100.414 164.359 99.9844 164.445 99.625 164.617C99.2656 164.789 98.9648 165.023 98.7227 165.32C98.4805 165.617 98.2891 165.961 98.1484 166.352C98.0156 166.742 97.9258 167.164 97.8789 167.617V169.738C97.9492 170.324 98.0977 170.863 98.3242 171.355C98.5586 171.84 98.8867 172.23 99.3086 172.527C99.7305 172.816 100.273 172.961 100.938 172.961C101.461 172.961 101.902 172.855 102.262 172.645C102.621 172.434 102.906 172.141 103.117 171.766C103.336 171.383 103.492 170.938 103.586 170.43C103.688 169.922 103.738 169.375 103.738 168.789ZM116.102 172.457V166.41C116.102 165.957 116.02 165.566 115.855 165.238C115.691 164.91 115.441 164.656 115.105 164.477C114.777 164.297 114.363 164.207 113.863 164.207C113.402 164.207 113.004 164.285 112.668 164.441C112.332 164.598 112.07 164.809 111.883 165.074C111.695 165.34 111.602 165.641 111.602 165.977H108.789C108.789 165.477 108.91 164.992 109.152 164.523C109.395 164.055 109.746 163.637 110.207 163.27C110.668 162.902 111.219 162.613 111.859 162.402C112.5 162.191 113.219 162.086 114.016 162.086C114.969 162.086 115.812 162.246 116.547 162.566C117.289 162.887 117.871 163.371 118.293 164.02C118.723 164.66 118.938 165.465 118.938 166.434V172.07C118.938 172.648 118.977 173.168 119.055 173.629C119.141 174.082 119.262 174.477 119.418 174.812V175H116.523C116.391 174.695 116.285 174.309 116.207 173.84C116.137 173.363 116.102 172.902 116.102 172.457ZM116.512 167.289L116.535 169.035H114.508C113.984 169.035 113.523 169.086 113.125 169.188C112.727 169.281 112.395 169.422 112.129 169.609C111.863 169.797 111.664 170.023 111.531 170.289C111.398 170.555 111.332 170.855 111.332 171.191C111.332 171.527 111.41 171.836 111.566 172.117C111.723 172.391 111.949 172.605 112.246 172.762C112.551 172.918 112.918 172.996 113.348 172.996C113.926 172.996 114.43 172.879 114.859 172.645C115.297 172.402 115.641 172.109 115.891 171.766C116.141 171.414 116.273 171.082 116.289 170.77L117.203 172.023C117.109 172.344 116.949 172.688 116.723 173.055C116.496 173.422 116.199 173.773 115.832 174.109C115.473 174.438 115.039 174.707 114.531 174.918C114.031 175.129 113.453 175.234 112.797 175.234C111.969 175.234 111.23 175.07 110.582 174.742C109.934 174.406 109.426 173.957 109.059 173.395C108.691 172.824 108.508 172.18 108.508 171.461C108.508 170.789 108.633 170.195 108.883 169.68C109.141 169.156 109.516 168.719 110.008 168.367C110.508 168.016 111.117 167.75 111.836 167.57C112.555 167.383 113.375 167.289 114.297 167.289H116.512ZM129.004 171.566C129.004 171.285 128.934 171.031 128.793 170.805C128.652 170.57 128.383 170.359 127.984 170.172C127.594 169.984 127.016 169.812 126.25 169.656C125.578 169.508 124.961 169.332 124.398 169.129C123.844 168.918 123.367 168.664 122.969 168.367C122.57 168.07 122.262 167.719 122.043 167.312C121.824 166.906 121.715 166.438 121.715 165.906C121.715 165.391 121.828 164.902 122.055 164.441C122.281 163.98 122.605 163.574 123.027 163.223C123.449 162.871 123.961 162.594 124.562 162.391C125.172 162.188 125.852 162.086 126.602 162.086C127.664 162.086 128.574 162.266 129.332 162.625C130.098 162.977 130.684 163.457 131.09 164.066C131.496 164.668 131.699 165.348 131.699 166.105H128.875C128.875 165.77 128.789 165.457 128.617 165.168C128.453 164.871 128.203 164.633 127.867 164.453C127.531 164.266 127.109 164.172 126.602 164.172C126.117 164.172 125.715 164.25 125.395 164.406C125.082 164.555 124.848 164.75 124.691 164.992C124.543 165.234 124.469 165.5 124.469 165.789C124.469 166 124.508 166.191 124.586 166.363C124.672 166.527 124.812 166.68 125.008 166.82C125.203 166.953 125.469 167.078 125.805 167.195C126.148 167.312 126.578 167.426 127.094 167.535C128.062 167.738 128.895 168 129.59 168.32C130.293 168.633 130.832 169.039 131.207 169.539C131.582 170.031 131.77 170.656 131.77 171.414C131.77 171.977 131.648 172.492 131.406 172.961C131.172 173.422 130.828 173.824 130.375 174.168C129.922 174.504 129.379 174.766 128.746 174.953C128.121 175.141 127.418 175.234 126.637 175.234C125.488 175.234 124.516 175.031 123.719 174.625C122.922 174.211 122.316 173.684 121.902 173.043C121.496 172.395 121.293 171.723 121.293 171.027H124.023C124.055 171.551 124.199 171.969 124.457 172.281C124.723 172.586 125.051 172.809 125.441 172.949C125.84 173.082 126.25 173.148 126.672 173.148C127.18 173.148 127.605 173.082 127.949 172.949C128.293 172.809 128.555 172.621 128.734 172.387C128.914 172.145 129.004 171.871 129.004 171.566ZM139.832 175.234C138.895 175.234 138.047 175.082 137.289 174.777C136.539 174.465 135.898 174.031 135.367 173.477C134.844 172.922 134.441 172.27 134.16 171.52C133.879 170.77 133.738 169.961 133.738 169.094V168.625C133.738 167.633 133.883 166.734 134.172 165.93C134.461 165.125 134.863 164.438 135.379 163.867C135.895 163.289 136.504 162.848 137.207 162.543C137.91 162.238 138.672 162.086 139.492 162.086C140.398 162.086 141.191 162.238 141.871 162.543C142.551 162.848 143.113 163.277 143.559 163.832C144.012 164.379 144.348 165.031 144.566 165.789C144.793 166.547 144.906 167.383 144.906 168.297V169.504H135.109V167.477H142.117V167.254C142.102 166.746 142 166.27 141.812 165.824C141.633 165.379 141.355 165.02 140.98 164.746C140.605 164.473 140.105 164.336 139.48 164.336C139.012 164.336 138.594 164.438 138.227 164.641C137.867 164.836 137.566 165.121 137.324 165.496C137.082 165.871 136.895 166.324 136.762 166.855C136.637 167.379 136.574 167.969 136.574 168.625V169.094C136.574 169.648 136.648 170.164 136.797 170.641C136.953 171.109 137.18 171.52 137.477 171.871C137.773 172.223 138.133 172.5 138.555 172.703C138.977 172.898 139.457 172.996 139.996 172.996C140.676 172.996 141.281 172.859 141.812 172.586C142.344 172.312 142.805 171.926 143.195 171.426L144.684 172.867C144.41 173.266 144.055 173.648 143.617 174.016C143.18 174.375 142.645 174.668 142.012 174.895C141.387 175.121 140.66 175.234 139.832 175.234Z" fill="white"/>
<path d="M122 4L122 149" stroke="white" stroke-width="2" stroke-dasharray="4 4"/>
</svg>
